<?xml version="1.0" encoding="UTF-8"?>
<svg xmlns="http://www.w3.org/2000/svg" viewBox="0 0 1329.43 1032.46">
  <defs>
    <style>
      .cls-1 {
        fill: #f40000;
      }


    </style>
  </defs>
  <g id="_图层_2" data-name="图层_2">
    <rect class="cls-1" x="257.96" y="540.43" width="175.09" height="75.04"/>
    <rect class="cls-1" x="352.69" y="459" width="270.16" height="86.21"/>
    <rect class="cls-1" x="444.23" y="530.97" width="113.36" height="55.22"/>
    <rect class="cls-1" x="577.81" y="459" width="325.43" height="483.76"/>
    <rect class="cls-1" x="867.65" y="459" width="245.8" height="424.42"/>
    <rect class="cls-1" x="1099.04" y="604.02" width="28.52" height="279.4"/>
    <rect class="cls-1" x="1099.04" y="604.02" width="101.96" height="223.52"/>
    <rect class="cls-1" x="1133.41" y="581.14" width="67.59" height="63.52"/>
    <rect class="cls-1" x="1178.85" y="617.59" width="87.61" height="265.83"/>
    <rect class="cls-1" x="1143.52" y="768.73" width="57.48" height="114.69"/>
    <rect class="cls-1" x="934.31" y="858.27" width="145.21" height="59.36"/>
    <rect class="cls-1" x="924.78" y="902.9" width="341.67" height="86.89"/>
    <rect class="cls-1" x="352.69" y="535.16" width="80.36" height="26.5"/>
  </g>
  <g id="_图层_3" data-name="图层_3">
    <rect class="cls-1" x="352.69" y="637.41" width="204.89" height="246.01"/>
    <rect class="cls-1" x="444.04" y="594.07" width="113.54" height="50.85"/>
  </g>
  <g id="_图层_4" data-name="图层_4">
    <rect class="cls-1" x="102.48" y="637.41" width="236.03" height="246.01"/>
  </g>
  <g id="_图层_5" data-name="图层_5">
    <rect class="cls-1" x="103.38" y="462.11" width="143.32" height="153.36"/>
    <rect class="cls-1" x="46.41" y="462.11" width="56.97" height="143.32"/>
  </g>
  <g id="_图层_6" data-name="图层_6">
    <rect class="cls-1" x="257.96" y="406.4" width="80.71" height="113.97"/>
    <rect class="cls-1" x="46.41" y="88.46" width="292.27" height="353.24"/>
  </g>
  <g id="_图层_7" data-name="图层_7">
    <rect class="cls-1" x="353.37" y="219.7" width="132.22" height="151.48"/>
    <rect class="cls-1" x="353.37" y="382.93" width="132.22" height="64.97"/>
  </g>
  <g id="_图层_8" data-name="图层_8">
    <rect class="cls-1" x="505.34" y="184.11" width="222.34" height="263.46"/>
    <rect class="cls-1" x="534.75" y="145.57" width="164.16" height="50.13"/>
    <rect class="cls-1" x="505.69" y="37.21" width="221.99" height="127.28"/>
  </g>
</svg>